<svg width="11" height="11" viewBox="0 0 11 11" fill="none" xmlns="http://www.w3.org/2000/svg">
<path d="M5.5 11C5.86467 11 6.21441 10.8551 6.47227 10.5973C6.73013 10.3394 6.875 9.98966 6.875 9.62499H4.125C4.125 9.98966 4.26987 10.3394 4.52773 10.5973C4.78559 10.8551 5.13533 11 5.5 11ZM6.18406 0.755554C6.19366 0.659959 6.18311 0.563415 6.1531 0.472148C6.12309 0.38088 6.07429 0.296915 6.00983 0.225669C5.94538 0.154422 5.86671 0.0974749 5.7789 0.0585005C5.69108 0.0195262 5.59607 -0.000610352 5.5 -0.000610352C5.40393 -0.000610352 5.30892 0.0195262 5.2211 0.0585005C5.13329 0.0974749 5.05462 0.154422 4.99017 0.225669C4.92571 0.296915 4.87691 0.38088 4.8469 0.472148C4.81689 0.563415 4.80634 0.659959 4.81594 0.755554C4.03887 0.913611 3.3403 1.33536 2.83853 1.9494C2.33675 2.56343 2.0626 3.33201 2.0625 4.12499C2.0625 4.87987 1.71875 8.24999 0.6875 8.93749H10.3125C9.28125 8.24999 8.9375 4.87987 8.9375 4.12499C8.9375 2.46124 7.755 1.07249 6.18406 0.755554Z" fill="white"/>
</svg>
