<svg width="17" height="12" viewBox="0 0 17 12" fill="none" xmlns="http://www.w3.org/2000/svg">
<path fill-rule="evenodd" clip-rule="evenodd" d="M16 0.666656H15C14.4477 0.666656 14 1.11437 14 1.66666V10.3333C14 10.8856 14.4477 11.3333 15 11.3333H16C16.5523 11.3333 17 10.8856 17 10.3333V1.66666C17 1.11437 16.5523 0.666656 16 0.666656ZM10.3333 2.99999H11.3333C11.8856 2.99999 12.3333 3.44771 12.3333 3.99999V10.3333C12.3333 10.8856 11.8856 11.3333 11.3333 11.3333H10.3333C9.78105 11.3333 9.33333 10.8856 9.33333 10.3333V3.99999C9.33333 3.44771 9.78105 2.99999 10.3333 2.99999ZM6.66667 5.33332H5.66667C5.11438 5.33332 4.66667 5.78104 4.66667 6.33332V10.3333C4.66667 10.8856 5.11438 11.3333 5.66667 11.3333H6.66667C7.21895 11.3333 7.66667 10.8856 7.66667 10.3333V6.33332C7.66667 5.78104 7.21895 5.33332 6.66667 5.33332ZM2 7.33332H1C0.447715 7.33332 0 7.78104 0 8.33332V10.3333C0 10.8856 0.447715 11.3333 1 11.3333H2C2.55228 11.3333 3 10.8856 3 10.3333V8.33332C3 7.78104 2.55228 7.33332 2 7.33332Z" fill="white"/>
</svg>
