<svg width="33" height="33" viewBox="0 0 33 33" fill="none" xmlns="http://www.w3.org/2000/svg">
<g clip-path="url(#clip0)">
<path d="M12.4525 26.3794L3.26149 17.2399C3.20849 17.1872 3.16642 17.1246 3.13772 17.0555C3.10901 16.9865 3.09424 16.9125 3.09424 16.8377C3.09424 16.763 3.10901 16.689 3.13772 16.62C3.16642 16.5509 3.20849 16.4883 3.26149 16.4356L5.5818 14.1127C5.80352 13.8909 6.16188 13.8909 6.3836 14.1127L12.4345 20.1274C12.6562 20.3491 13.0171 20.3466 13.2388 20.1248L26.609 6.62579C26.8307 6.40149 27.1916 6.40149 27.4159 6.62321L29.7388 8.9461C29.9606 9.16782 29.9606 9.52618 29.7414 9.7479L15.175 24.4458L15.1776 24.4484L13.2569 26.3794C13.0352 26.6011 12.6742 26.6011 12.4525 26.3794Z" fill="#E0E0E0" stroke="#E0E0E0" stroke-width="1.54688" stroke-miterlimit="10"/>
</g>
<defs>
<clipPath id="clip0">
<rect width="33" height="33" fill="white"/>
</clipPath>
</defs>
</svg>
