<svg width="36" height="34" viewBox="0 0 36 34" fill="none" xmlns="http://www.w3.org/2000/svg">
<rect width="36" height="33.6" rx="9.8" fill="#395185"/>
<g clip-path="url(#clip0)">
<path d="M28.6202 31.6001C29.3821 31.6001 30 30.9823 30 30.2203V7.97979C30 7.21768 29.3821 6.60001 28.6202 6.60001H6.37979C5.61758 6.60001 5 7.21768 5 7.97979V30.2203C5 30.9823 5.61758 31.6001 6.37979 31.6001H28.6202Z" fill="#395185"/>
<path d="M19.5465 32.7146V21.1958H23.413L23.9918 16.7067H19.5465V13.8405C19.5465 12.5408 19.9075 11.6551 21.7713 11.6551L24.1485 11.654V7.63903C23.7371 7.58431 22.3261 7.46207 20.6846 7.46207C17.2572 7.46207 14.9108 9.5541 14.9108 13.3961V16.7067H11.0344V21.1958H14.9108V32.7146H19.5465Z" fill="white"/>
</g>
<defs>
<clipPath id="clip0">
<rect width="25" height="25" fill="white" transform="translate(5 6.60001)"/>
</clipPath>
</defs>
</svg>
