<svg width="63" height="58" viewBox="0 0 63 58" fill="none" xmlns="http://www.w3.org/2000/svg">
<path d="M30.4746 17.1953H32.5254C32.7077 17.1953 32.7988 17.2865 32.7988 17.4688V41.5312C32.7988 41.7135 32.7077 41.8047 32.5254 41.8047H30.4746C30.2923 41.8047 30.2012 41.7135 30.2012 41.5312V17.4688C30.2012 17.2865 30.2923 17.1953 30.4746 17.1953Z" fill="#C4C4C4"/>
<path d="M20.0156 28.2012H42.9844C43.1667 28.2012 43.2578 28.2923 43.2578 28.4746V30.5254C43.2578 30.7077 43.1667 30.7988 42.9844 30.7988H20.0156C19.8333 30.7988 19.7422 30.7077 19.7422 30.5254V28.4746C19.7422 28.2923 19.8333 28.2012 20.0156 28.2012Z" fill="#C4C4C4"/>
<rect x="0.5" y="0.5" width="62" height="57" rx="2.5" stroke="#8C8787"/>
</svg>
