<svg width="25" height="7" viewBox="0 0 25 7" fill="none" xmlns="http://www.w3.org/2000/svg">
<path d="M9.41675 3.5C9.41675 5.19583 10.8042 6.58333 12.5001 6.58333C14.1959 6.58333 15.5834 5.19583 15.5834 3.5C15.5834 1.80417 14.1959 0.416666 12.5001 0.416666C10.8042 0.416666 9.41675 1.80417 9.41675 3.5ZM0.166748 3.5C0.166748 5.19583 1.55425 6.58333 3.25008 6.58333C4.94592 6.58333 6.33341 5.19583 6.33341 3.5C6.33341 1.80417 4.94591 0.416666 3.25008 0.416666C1.55425 0.416666 0.166748 1.80417 0.166748 3.5ZM18.6667 3.5C18.6667 5.19583 20.0542 6.58333 21.7501 6.58333C23.4459 6.58333 24.8334 5.19583 24.8334 3.5C24.8334 1.80417 23.4459 0.416665 21.7501 0.416666C20.0542 0.416666 18.6667 1.80417 18.6667 3.5Z" fill="white"/>
</svg>
