<svg width="36" height="34" viewBox="0 0 36 34" fill="none" xmlns="http://www.w3.org/2000/svg">
<rect width="36" height="33.6" rx="8.8" fill="#2CB742"/>
<g clip-path="url(#clip0)">
<g filter="url(#filter0_f)">
<path d="M5.27173 29.8366L7.0586 23.3168C5.95992 21.409 5.37433 19.2418 5.38037 17.0263C5.38037 10.0838 11.0309 4.43935 17.9734 4.43935C21.3419 4.43935 24.5053 5.74938 26.8778 8.12788C29.2563 10.5064 30.5664 13.6697 30.5603 17.0323C30.5603 23.9747 24.9097 29.6193 17.9673 29.6193H17.9613C15.8544 29.6193 13.7837 29.0881 11.9425 28.0859L5.27173 29.8366ZM12.2564 25.8039L12.6367 26.0334C14.2425 26.9872 16.0838 27.4882 17.9613 27.4942H17.9673C23.7326 27.4942 28.4292 22.8036 28.4292 17.0323C28.4292 14.2372 27.3426 11.6112 25.3685 9.63102C23.3945 7.65093 20.7624 6.56433 17.9673 6.56433C12.196 6.56433 7.4993 11.255 7.4993 17.0262C7.4993 19.0004 8.04865 20.9261 9.0991 22.5923L9.34659 22.9907L8.29019 26.8483L12.2564 25.8039Z" fill="black" fill-opacity="0.24"/>
</g>
<path d="M5.84253 29.1636L7.54764 22.9452C6.49622 21.1213 5.94313 19.0528 5.94388 16.9476C5.94388 10.3297 11.3336 4.94609 17.9452 4.94609C21.1588 4.94609 24.1697 6.1981 26.4351 8.46359C28.7006 10.7292 29.9468 13.746 29.9468 16.9535C29.9468 23.5712 24.5571 28.9549 17.9453 28.9549H17.9394C15.9302 28.9549 13.9567 28.4481 12.2039 27.4942L5.84253 29.1637V29.1636Z" fill="url(#paint0_linear)"/>
<path d="M5.40698 29.5988L7.17167 23.1599C6.08663 21.276 5.50823 19.1356 5.51427 16.9476C5.51427 10.0913 11.0947 4.51685 17.951 4.51685C21.2777 4.51685 24.4017 5.81052 26.7449 8.15955C29.0938 10.5086 30.3876 13.6327 30.3816 16.9535C30.3816 23.8098 24.8012 29.3842 17.9449 29.3842H17.939C15.8623 29.3834 13.8189 28.8628 11.9949 27.8698L5.40698 29.5989V29.5988ZM12.3049 25.6162L12.6805 25.8428C14.2665 26.7848 16.0848 27.2797 17.939 27.2856H17.945C23.6386 27.2856 28.2771 22.6532 28.2771 16.9535C28.2771 14.1931 27.2039 11.5997 25.2543 9.64415C23.3048 7.68864 20.7053 6.61547 17.945 6.61547C12.2453 6.61547 7.60695 11.2479 7.60695 16.9476C7.60695 18.8971 8.14942 20.799 9.18686 22.4444L9.43132 22.8379L8.38795 26.6476L12.3049 25.6162Z" fill="white"/>
<path d="M14.8395 11.7428C14.6069 11.2241 14.3624 11.2121 14.1419 11.2061C13.9631 11.2002 13.7544 11.2002 13.5457 11.2002C13.337 11.2002 13.0031 11.2777 12.717 11.5877C12.4307 11.8978 11.6318 12.649 11.6318 14.1813C11.6318 15.7074 12.7468 17.186 12.9018 17.3946C13.0568 17.6034 15.054 20.8407 18.2079 22.0867C20.8312 23.1242 21.3678 22.9154 21.9341 22.8618C22.5065 22.8081 23.7705 22.1106 24.0328 21.3832C24.2891 20.6559 24.2891 20.0358 24.2116 19.9047C24.1341 19.7734 23.9255 19.696 23.6154 19.5409C23.3054 19.386 21.7791 18.6348 21.493 18.5275C21.2068 18.4202 20.9982 18.3725 20.7955 18.6825C20.5867 18.9924 19.9906 19.69 19.8117 19.8987C19.6328 20.1074 19.448 20.1312 19.1379 19.9762C18.828 19.8212 17.8264 19.4932 16.64 18.4321C15.7159 17.6093 15.0899 16.5898 14.9109 16.2798C14.7321 15.9698 14.8931 15.8027 15.0481 15.6478C15.1852 15.5107 15.3581 15.2841 15.5132 15.1053C15.6682 14.9264 15.7218 14.7953 15.8231 14.5866C15.9245 14.3779 15.8768 14.1991 15.7993 14.0441C15.7218 13.889 15.1137 12.3568 14.8395 11.7428Z" fill="white"/>
</g>
<defs>
<filter id="filter0_f" x="4.64677" y="3.81439" width="26.5385" height="26.6472" filterUnits="userSpaceOnUse" color-interpolation-filters="sRGB">
<feFlood flood-opacity="0" result="BackgroundImageFix"/>
<feBlend mode="normal" in="SourceGraphic" in2="BackgroundImageFix" result="shape"/>
<feGaussianBlur stdDeviation="0.312481" result="effect1_foregroundBlur"/>
</filter>
<linearGradient id="paint0_linear" x1="17.8942" y1="29.162" x2="17.8942" y2="4.94464" gradientUnits="userSpaceOnUse">
<stop stop-color="#20B038"/>
<stop offset="1" stop-color="#60D66A"/>
</linearGradient>
<clipPath id="clip0">
<rect width="26.6651" height="26.7692" fill="white" transform="translate(4.61548 3.69231)"/>
</clipPath>
</defs>
</svg>
