<svg width="16" height="12" viewBox="0 0 16 12" fill="none" xmlns="http://www.w3.org/2000/svg">
<path fill-rule="evenodd" clip-rule="evenodd" d="M7.66707 2.61517C9.8918 2.61526 12.0315 3.46937 13.6438 5.00097C13.7652 5.11921 13.9593 5.11772 14.0789 4.99762L15.2395 3.82729C15.3 3.76638 15.3338 3.68387 15.3333 3.59802C15.3328 3.51217 15.2981 3.43006 15.2368 3.36986C11.0049 -0.682369 4.32857 -0.682369 0.0966565 3.36986C0.0353544 3.43002 0.000572274 3.5121 6.99859e-06 3.59795C-0.000558277 3.6838 0.0331399 3.76634 0.0936446 3.82729L1.25459 4.99762C1.37409 5.1179 1.56831 5.11939 1.68965 5.00097C3.30221 3.46927 5.44212 2.61516 7.66707 2.61517ZM7.66707 6.42275C8.88942 6.42267 10.0681 6.87663 10.9742 7.6964C11.0968 7.81275 11.2898 7.81023 11.4093 7.69072L12.5685 6.52039C12.6296 6.459 12.6635 6.37572 12.6626 6.28919C12.6617 6.20265 12.6261 6.12008 12.5639 6.05995C9.8047 3.49554 5.53178 3.49554 2.77262 6.05995C2.7103 6.12008 2.67474 6.20269 2.67392 6.28926C2.6731 6.37582 2.70709 6.45909 2.76827 6.52039L3.92721 7.69072C4.04667 7.81023 4.23972 7.81275 4.36227 7.6964C5.26774 6.87717 6.44553 6.42326 7.66707 6.42275ZM9.98929 8.98459C9.99106 9.07136 9.95692 9.15503 9.89492 9.21583L7.88962 11.2378C7.83084 11.2972 7.75069 11.3307 7.66707 11.3307C7.58345 11.3307 7.5033 11.2972 7.44452 11.2378L5.43888 9.21583C5.37693 9.15498 5.34284 9.07129 5.34468 8.98451C5.34652 8.89774 5.38411 8.81556 5.44859 8.75739C6.72925 7.67512 8.60489 7.67512 9.88555 8.75739C9.94998 8.81561 9.98752 8.89781 9.98929 8.98459Z" fill="white"/>
</svg>
